<?xml version="1.0" standalone="no"?>
<!DOCTYPE svg PUBLIC "-//W3C//DTD SVG 20010904//EN"
 "http://www.w3.org/TR/2001/REC-SVG-20010904/DTD/svg10.dtd">
<svg version="1.0" xmlns="http://www.w3.org/2000/svg"
 width="835.000000pt" height="470.000000pt" viewBox="0 0 835.000000 470.000000"
 preserveAspectRatio="xMidYMid meet">
<metadata>
Created by potrace 1.16, written by Peter Selinger 2001-2019
</metadata>
<g transform="translate(0.000000,470.000000) scale(0.100000,-0.100000)"
fill="#000000" stroke="none">
<path d="M3285 3473 c-458 -21 -1111 -63 -1156 -74 -20 -5 -84 -45 -142 -89
-173 -130 -280 -196 -389 -238 -101 -40 -273 -89 -393 -112 -33 -7 -63 -17
-66 -22 -4 -6 -87 -26 -185 -45 -692 -131 -734 -141 -744 -167 -4 -12 -19
-106 -34 -210 -27 -194 -27 -205 12 -206 13 0 15 -10 6 -34 -4 -10 -18 -16
-35 -16 -28 0 -29 -1 -29 -54 0 -48 4 -58 41 -100 22 -25 47 -46 55 -46 7 0
16 -11 20 -24 4 -18 25 -33 82 -59 277 -126 445 -177 675 -205 l137 -16 -6
-49 c-6 -45 -5 -49 12 -44 10 4 40 11 66 18 44 10 47 13 54 53 8 38 9 35 15
-44 29 -351 350 -599 697 -536 228 41 428 231 475 451 l11 57 66 -6 c83 -8
1231 -23 2423 -32 l928 -6 -6 -43 c-6 -35 -3 -46 18 -71 l25 -29 10 25 c6 14
18 63 28 108 17 76 21 82 44 82 14 0 35 3 47 6 19 5 23 1 28 -33 32 -187 155
-358 315 -436 113 -55 186 -71 305 -64 149 8 262 55 377 156 95 83 173 245
184 385 4 41 12 77 18 79 6 2 30 2 54 -1 41 -4 42 -5 42 -42 0 -48 14 -52 129
-39 246 28 441 109 501 209 38 63 44 67 128 86 168 37 197 69 117 132 -14 11
-25 26 -25 33 0 8 16 65 35 128 30 98 34 119 25 152 -6 21 -19 43 -29 49 -47
24 -615 173 -856 224 -201 42 -568 77 -1420 136 -403 28 -458 34 -522 56 -39
13 -94 24 -123 24 -46 0 -51 -2 -45 -17 23 -57 -7 -73 -140 -73 l-100 0 -296
223 c-354 266 -376 283 -367 292 4 4 36 13 70 19 35 6 63 15 63 20 0 5 -21 22
-46 38 -41 25 -60 29 -170 36 -117 9 -862 12 -1014 5z m-165 -170 c0 -66 -33
-479 -39 -485 -7 -7 -184 37 -318 80 -101 32 -134 63 -112 103 14 27 68 100
176 237 l73 92 110 0 110 0 0 -27z m911 18 l176 -6 64 -39 c163 -100 668 -441
661 -447 -12 -11 -957 -43 -1277 -44 -289 0 -501 9 -521 23 -7 5 -4 86 7 237
10 127 18 242 18 258 l1 27 348 -1 c191 -1 426 -4 523 -8z m2784 -1225 c34
-15 83 -49 112 -78 246 -242 60 -656 -285 -636 -99 6 -174 39 -242 108 -129
129 -147 325 -43 478 99 146 297 202 458 128z m-4808 -8 c148 -54 239 -189
237 -353 -1 -185 -122 -329 -307 -366 -157 -32 -330 58 -405 210 -24 50 -27
67 -27 161 0 96 2 110 29 163 89 175 288 253 473 185z m5893 -33 l0 -35 -120
0 -120 0 0 35 0 35 120 0 120 0 0 -35z"/>
<path d="M6580 2076 c-102 -29 -175 -91 -219 -185 -21 -46 -26 -70 -26 -136 0
-71 4 -89 33 -147 59 -120 161 -183 297 -183 71 0 88 4 147 33 119 58 182 161
183 297 0 67 -4 89 -27 136 -35 71 -99 136 -163 165 -63 29 -164 38 -225 20z
m225 -36 c69 -33 129 -99 155 -168 18 -46 21 -72 18 -137 -7 -126 -63 -212
-175 -267 -56 -27 -77 -32 -137 -32 -127 0 -231 65 -287 180 -84 170 -2 374
178 440 60 22 187 14 248 -16z"/>
<path d="M1746 2045 c-73 -30 -147 -100 -178 -169 -34 -77 -33 -201 4 -278
121 -258 485 -253 605 10 29 62 35 158 15 228 -53 182 -267 283 -446 209z
m262 -17 c202 -97 245 -375 81 -523 -118 -106 -288 -113 -414 -17 -62 47 -113
141 -122 223 -14 139 80 281 219 331 69 24 170 19 236 -14z"/>
</g>
</svg>
