<?xml version="1.0" standalone="no"?>
<!DOCTYPE svg PUBLIC "-//W3C//DTD SVG 20010904//EN"
 "http://www.w3.org/TR/2001/REC-SVG-20010904/DTD/svg10.dtd">
<svg version="1.0" xmlns="http://www.w3.org/2000/svg"
 width="805.000000pt" height="453.000000pt" viewBox="0 0 805.000000 453.000000"
 preserveAspectRatio="xMidYMid meet">

<g transform="translate(0.000000,453.000000) scale(0.100000,-0.100000)"
fill="#000000" stroke="none">
<path d="M1585 3511 c-11 -5 -52 -10 -92 -10 -39 -1 -74 -5 -78 -10 -3 -5 -31
-12 -63 -16 -31 -4 -157 -23 -279 -42 -223 -36 -223 -36 -223 -61 0 -14 9 -36
21 -48 l20 -22 -29 -33 c-92 -108 -178 -234 -235 -347 -59 -114 -147 -306
-147 -317 0 -3 49 -5 108 -5 155 0 150 7 116 -171 -16 -86 -30 -197 -33 -274
l-6 -130 -96 0 c-96 0 -96 0 -144 37 -48 38 -65 40 -65 11 0 -38 -26 -97 -60
-136 l-37 -42 -12 -145 c-20 -253 13 -342 140 -375 66 -17 339 -57 557 -81
155 -17 164 -17 173 -1 16 27 48 21 54 -10 20 -95 30 -125 63 -188 119 -227
389 -349 641 -290 200 47 378 222 424 416 12 49 13 50 41 45 16 -4 37 -12 45
-20 13 -12 279 -17 1611 -30 877 -9 1652 -18 1722 -20 123 -4 127 -3 147 20
34 39 55 31 74 -29 58 -183 228 -337 423 -383 120 -28 280 -8 390 49 58 30
149 106 186 154 45 59 95 159 106 210 9 41 21 44 75 24 21 -8 27 -17 27 -42
l0 -32 108 6 c59 3 135 11 169 18 51 9 62 15 67 34 5 18 15 23 58 28 37 5 68
17 105 43 61 42 74 72 49 114 -25 43 -20 100 14 165 27 52 30 65 30 156 0 80
-4 108 -20 139 -11 22 -32 73 -46 113 -35 97 -116 243 -170 304 -36 42 -61 58
-146 96 -214 93 -406 142 -928 237 -124 22 -240 47 -258 55 -18 8 -49 15 -68
15 -28 0 -68 20 -178 89 -412 258 -732 451 -825 498 -58 29 -153 69 -212 88
-99 32 -134 37 -426 65 -234 22 -333 35 -375 50 -54 19 -87 21 -445 24 -1228
13 -2050 15 -2068 7z m779 -158 c-6 -27 -124 -717 -124 -726 0 -5 -44 -6 -97
-2 -54 3 -341 17 -638 30 -297 14 -564 27 -592 31 -48 5 -53 8 -53 30 0 29
120 270 180 361 54 82 159 177 234 212 134 63 269 78 748 80 325 1 346 0 342
-16z m1506 -1 l105 -7 3 -402 2 -402 -92 5 c-51 3 -380 18 -731 34 -351 16
-641 31 -644 34 -3 3 8 171 26 373 17 203 31 372 31 377 0 9 1127 -1 1300 -12z
m640 -33 c225 -22 387 -70 557 -168 111 -64 435 -269 622 -395 l85 -56 -3
-113 c-1 -61 -6 -115 -9 -119 -7 -7 -1512 59 -1520 67 -4 4 -30 651 -32 767
l0 36 98 -4 c53 -3 144 -10 202 -15z m2893 -1048 c94 -10 111 -23 156 -121 48
-103 49 -129 11 -165 -28 -26 -38 -30 -85 -28 -30 1 -82 10 -116 19 l-62 17
-52 111 c-75 162 -75 151 -11 167 41 9 67 9 159 0z m-5480 -518 c152 -72 247
-219 247 -384 1 -380 -456 -571 -722 -303 -224 227 -139 597 162 702 97 34
220 28 313 -15z m4698 17 c79 -27 123 -56 182 -119 151 -162 151 -411 1 -572
-253 -270 -686 -125 -738 246 -15 110 41 261 128 344 120 112 280 150 427 101z"/>
<path d="M1713 1718 c3 -18 9 -75 13 -125 8 -117 28 -128 38 -20 4 39 9 96 12
125 l6 52 -37 0 c-36 0 -37 -1 -32 -32z"/>
<path d="M1583 1719 c-24 -12 -43 -24 -43 -28 1 -3 34 -48 75 -100 85 -107 83
-108 62 54 -14 103 -21 109 -94 74z"/>
<path d="M1826 1708 c-13 -75 -27 -200 -24 -204 5 -4 141 169 146 186 4 10
-78 50 -103 50 -8 0 -16 -14 -19 -32z"/>
<path d="M1469 1639 c-25 -25 -30 -17 86 -113 78 -65 121 -87 93 -48 -36 51
-144 181 -150 181 -5 1 -17 -8 -29 -20z"/>
<path d="M1915 1568 c-73 -90 -84 -108 -66 -108 12 0 191 148 191 159 0 9 -33
41 -43 41 -3 0 -40 -41 -82 -92z"/>
<path d="M1391 1521 c-28 -65 -27 -69 12 -75 80 -14 199 -27 203 -23 5 5 -178
147 -188 147 -3 0 -15 -22 -27 -49z"/>
<path d="M1973 1498 c-51 -40 -91 -74 -89 -76 4 -3 130 11 204 24 21 3 32 10
32 22 -1 23 -37 102 -47 102 -4 0 -49 -33 -100 -72z"/>
<path d="M1709 1399 c-14 -14 -18 -27 -13 -42 13 -44 54 -57 83 -28 26 26 26
46 1 71 -25 25 -45 25 -71 -1z"/>
<path d="M1360 1365 l0 -38 38 6 c20 3 76 9 125 13 111 9 119 29 15 38 -40 4
-97 9 -125 12 l-53 6 0 -37z"/>
<path d="M1978 1387 c-131 -13 -133 -32 -5 -41 50 -4 107 -10 125 -13 31 -5
32 -4 32 31 0 41 11 40 -152 23z"/>
<path d="M1468 1296 c-48 -7 -90 -15 -94 -19 -7 -6 17 -77 35 -106 9 -14 40 7
184 121 l22 18 -30 -1 c-16 -1 -69 -7 -117 -13z"/>
<path d="M1886 1302 c5 -5 49 -39 97 -76 83 -64 89 -67 102 -50 21 30 40 94
29 103 -5 4 -53 13 -106 20 -116 13 -135 14 -122 3z"/>
<path d="M1546 1198 l-97 -80 22 -24 c12 -13 24 -24 25 -24 3 0 119 139 152
182 7 9 9 19 4 22 -5 3 -52 -31 -106 -76z"/>
<path d="M1840 1269 c0 -8 34 -56 76 -106 64 -77 79 -91 94 -83 15 8 35 40 28
44 -2 1 -39 31 -83 67 -121 98 -115 94 -115 78z"/>
<path d="M1614 1139 c-38 -49 -70 -93 -72 -98 -4 -11 96 -54 112 -48 11 4 42
224 33 233 -2 2 -34 -37 -73 -87z"/>
<path d="M1726 1143 c-4 -49 -10 -105 -13 -125 l-6 -38 38 0 38 0 -6 48 c-4
26 -9 82 -13 125 -9 109 -29 103 -38 -10z"/>
<path d="M1800 1223 c0 -14 18 -154 26 -200 3 -18 9 -33 15 -33 17 0 109 42
109 50 0 6 -117 160 -141 185 -6 5 -9 5 -9 -2z"/>
<path d="M6460 1723 c0 -45 20 -216 25 -221 12 -13 19 16 30 128 l11 120 -33
0 c-29 0 -33 -3 -33 -27z"/>
<path d="M6333 1720 c-24 -10 -43 -23 -43 -28 0 -10 141 -195 145 -190 1 2 -4
50 -11 108 -7 58 -13 111 -14 118 0 17 -28 15 -77 -8z"/>
<path d="M6559 1621 c-8 -66 -11 -117 -7 -115 4 3 39 46 79 97 l71 92 -49 22
c-79 37 -78 38 -94 -96z"/>
<path d="M6212 1637 l-21 -22 94 -78 c87 -71 122 -92 113 -68 -5 15 -151 191
-158 191 -4 0 -16 -10 -28 -23z"/>
<path d="M6658 1566 c-43 -52 -78 -97 -78 -100 0 -17 31 2 116 71 l94 77 -22
23 c-12 13 -24 23 -27 23 -3 0 -41 -43 -83 -94z"/>
<path d="M6133 1514 c-14 -30 -23 -57 -21 -60 4 -4 218 -34 241 -34 11 0 -174
149 -186 150 -4 0 -20 -25 -34 -56z"/>
<path d="M6717 1498 c-48 -39 -86 -72 -84 -75 5 -5 226 23 233 30 11 11 -39
118 -55 116 -3 0 -46 -32 -94 -71z"/>
<path d="M6457 1402 c-24 -27 -21 -59 8 -78 23 -15 27 -15 50 0 29 19 33 56 9
80 -21 21 -47 20 -67 -2z"/>
<path d="M6100 1366 l0 -37 68 7 c153 15 183 19 185 29 2 10 -35 16 -175 29
l-78 8 0 -36z"/>
<path d="M6815 1395 c-5 -2 -49 -7 -97 -10 -61 -5 -88 -11 -88 -20 0 -8 27
-14 88 -19 48 -4 104 -10 125 -13 l37 -6 0 37 c0 33 -2 36 -27 35 -16 0 -32
-2 -38 -4z"/>
<path d="M6205 1295 c-49 -7 -91 -14 -92 -14 -4 -2 16 -60 31 -89 11 -20 21
-30 29 -26 22 13 177 135 177 140 0 6 -45 3 -145 -11z"/>
<path d="M6640 1296 c8 -7 51 -41 94 -75 59 -46 82 -58 92 -50 15 12 46 100
39 107 -5 6 -184 31 -220 32 -17 0 -17 -2 -5 -14z"/>
<path d="M6295 1203 c-49 -41 -92 -79 -94 -85 -3 -9 27 -48 38 -48 14 0 163
192 155 200 -5 4 -49 -26 -99 -67z"/>
<path d="M6586 1271 c-5 -8 137 -192 153 -199 4 -1 17 8 29 21 l23 24 -100 82
c-55 45 -102 77 -105 72z"/>
<path d="M6363 1144 c-40 -52 -73 -99 -73 -104 0 -11 82 -50 106 -50 8 0 14 8
14 18 0 9 7 64 15 122 7 57 13 105 12 106 -1 1 -35 -41 -74 -92z"/>
<path d="M6476 1188 c-3 -24 -8 -80 -12 -125 l-7 -83 35 0 34 0 -13 123 c-6
67 -12 123 -12 125 -1 1 -5 2 -10 2 -5 0 -11 -19 -15 -42z"/>
<path d="M6559 1110 c15 -131 15 -131 78 -105 68 29 68 28 -10 130 -40 52 -74
94 -77 94 -3 1 1 -53 9 -119z"/>
</g>
</svg>
