<?xml version="1.0" standalone="no"?>
<!DOCTYPE svg PUBLIC "-//W3C//DTD SVG 20010904//EN"
 "http://www.w3.org/TR/2001/REC-SVG-20010904/DTD/svg10.dtd">
<svg version="1.0" xmlns="http://www.w3.org/2000/svg"
 width="823.000000pt" height="463.000000pt" viewBox="0 0 823.000000 463.000000"
 preserveAspectRatio="xMidYMid meet">

<g transform="translate(0.000000,463.000000) scale(0.100000,-0.100000)"
fill="#000000" stroke="none">
<path d="M3135 3774 c-156 -13 -359 -37 -466 -55 -87 -15 -124 -18 -132 -10
-6 6 -30 11 -53 11 -26 0 -57 9 -79 21 -24 14 -44 19 -61 15 l-25 -7 20 -33
c12 -18 21 -40 21 -48 0 -9 -36 -25 -110 -48 -61 -18 -113 -37 -116 -42 -3 -5
5 -31 18 -58 l24 -49 -105 -47 c-326 -145 -518 -248 -756 -406 l-150 -100 -73
13 c-40 6 -75 16 -78 21 -4 6 16 30 42 54 l49 45 -195 -6 c-180 -6 -196 -8
-212 -27 -10 -11 -18 -26 -18 -32 0 -20 40 -51 109 -86 l63 -31 -104 -107
c-119 -122 -171 -191 -257 -346 -59 -106 -62 -110 -127 -145 -75 -41 -122 -91
-133 -143 -5 -19 -4 -81 1 -139 5 -57 10 -150 12 -206 l3 -102 60 -83 c33 -46
72 -106 86 -134 25 -49 29 -52 74 -58 26 -4 64 -13 83 -21 46 -19 368 -65 452
-65 l65 0 31 -62 c108 -217 333 -358 572 -358 96 0 194 24 290 71 107 53 226
168 280 272 l35 68 245 -6 c135 -3 846 -10 1580 -15 734 -6 1479 -13 1656 -16
l321 -6 20 -42 c114 -232 426 -371 696 -310 171 39 313 139 402 282 l36 59 47
-8 c74 -12 82 -11 82 11 0 11 1 20 3 20 14 0 255 44 335 61 110 23 144 41 227
118 41 38 46 47 39 70 -10 35 -6 215 6 247 6 14 10 75 10 136 l0 111 -47 43
c-25 24 -60 48 -77 55 -41 16 -76 48 -76 69 0 10 -16 49 -35 87 -26 53 -56 91
-120 152 -133 128 -288 219 -516 304 -183 68 -608 145 -1127 202 -172 19 -160
21 -158 -17 1 -35 -17 -45 -86 -47 -33 -1 -53 12 -200 135 -210 175 -346 277
-538 404 -85 57 -157 105 -159 107 -3 2 5 16 17 32 24 33 20 40 -39 65 -83 35
-500 105 -844 141 -143 16 -721 28 -840 19z m1175 -258 c270 -27 373 -61 553
-181 108 -71 412 -315 394 -315 -1 0 -33 7 -71 14 -85 18 -125 6 -152 -46 -18
-33 -22 -116 -9 -158 8 -25 95 -26 -900 10 -451 16 -834 30 -851 30 l-30 0
-53 293 c-29 160 -53 299 -54 307 -2 16 136 37 378 59 143 13 610 5 795 -13z
m-1396 -88 c10 -46 76 -504 76 -526 0 -24 0 -24 -107 -18 -60 4 -286 13 -503
21 -409 16 -455 19 -465 35 -29 47 222 242 457 355 140 67 240 101 388 130
146 30 149 30 154 3z m-1909 -808 c39 -15 60 -73 45 -123 -14 -47 -88 -129
-148 -165 -65 -37 -165 -62 -254 -62 -78 0 -178 16 -178 28 0 20 117 156 184
214 107 93 161 118 252 118 40 0 84 -4 99 -10z m6434 -137 c68 -32 189 -146
223 -210 62 -114 59 -183 -7 -183 -52 0 -102 30 -192 114 -134 126 -194 237
-158 292 20 30 49 27 134 -13z m-5683 -474 c259 -47 434 -303 380 -557 -37
-177 -160 -312 -330 -364 -56 -17 -85 -20 -163 -16 -85 5 -102 9 -177 46 -104
52 -173 122 -223 228 -31 65 -37 88 -41 169 -4 75 -1 106 16 161 51 166 187
292 355 329 78 17 109 18 183 4z m4995 -3 c89 -19 155 -54 228 -122 169 -156
198 -415 68 -606 -146 -214 -434 -271 -653 -130 -99 64 -168 161 -199 277 -66
254 101 524 358 580 81 18 118 18 198 1z m-6317 -300 c76 -19 143 -40 147 -48
15 -22 10 -48 -8 -48 -21 0 -267 65 -283 75 -11 7 -14 38 -3 48 8 8 -16 13
147 -27z"/>
<path d="M1635 1938 c3 -18 9 -80 15 -137 6 -58 12 -107 14 -109 14 -13 24 17
30 90 4 46 9 107 13 136 l6 52 -41 0 c-40 0 -41 0 -37 -32z"/>
<path d="M1491 1935 l-53 -25 28 -38 c159 -210 153 -209 129 -32 -8 58 -15
108 -15 113 0 14 -35 7 -89 -18z"/>
<path d="M1748 1828 c-9 -73 -16 -134 -14 -135 4 -4 166 203 166 212 0 8 -102
55 -120 55 -12 0 -19 -27 -32 -132z"/>
<path d="M1360 1845 l-23 -24 29 -24 c141 -119 190 -155 198 -147 6 6 4 16 -6
27 -8 10 -47 57 -87 106 -40 48 -76 87 -80 87 -4 0 -18 -11 -31 -25z"/>
<path d="M1864 1773 c-93 -113 -97 -120 -85 -127 7 -5 167 118 215 165 9 8
-29 59 -44 59 -3 0 -42 -44 -86 -97z"/>
<path d="M1282 1727 c-46 -97 -52 -91 105 -109 75 -10 138 -16 139 -15 3 3
-203 161 -214 165 -5 1 -19 -17 -30 -41z"/>
<path d="M1922 1688 c-56 -45 -101 -82 -100 -84 2 -1 63 5 136 13 108 13 132
19 132 32 0 22 -47 121 -57 120 -4 0 -54 -37 -111 -81z"/>
<path d="M1638 1589 c-21 -12 -24 -69 -6 -87 20 -20 76 -15 88 7 16 31 12 59
-12 75 -26 18 -46 20 -70 5z"/>
<path d="M1240 1541 c0 -41 1 -42 28 -37 15 2 59 7 97 11 121 10 155 17 155
30 0 8 -28 14 -87 19 -49 3 -112 9 -140 13 l-53 6 0 -42z"/>
<path d="M1931 1566 c-60 -6 -106 -16 -108 -22 -4 -13 34 -19 162 -29 44 -4
88 -9 98 -11 14 -5 17 1 17 35 0 48 10 46 -169 27z"/>
<path d="M1356 1464 c-54 -7 -100 -15 -103 -17 -4 -5 32 -104 46 -126 7 -10
30 3 102 60 133 103 130 99 89 98 -19 -1 -79 -7 -134 -15z"/>
<path d="M1891 1422 c41 -32 91 -71 111 -86 l38 -28 25 53 c25 54 32 89 18 89
-5 0 -55 7 -113 15 -165 23 -163 23 -79 -43z"/>
<path d="M1446 1353 l-107 -86 28 -29 c21 -22 29 -26 38 -16 61 68 165 199
165 207 0 22 -20 10 -124 -76z"/>
<path d="M1776 1432 c-4 -6 47 -72 151 -196 l24 -29 26 26 c32 32 34 30 -91
131 -96 78 -101 81 -110 68z"/>
<path d="M1733 1370 c3 -19 11 -82 18 -140 7 -58 13 -107 15 -109 5 -6 98 29
118 44 21 16 25 10 -97 165 -57 71 -59 73 -54 40z"/>
<path d="M1523 1286 c-46 -59 -83 -108 -83 -110 0 -7 130 -59 135 -54 7 7 37
237 33 255 -2 9 -38 -30 -85 -91z"/>
<path d="M1657 1348 c-4 -24 -9 -74 -12 -113 -4 -38 -9 -82 -11 -97 -5 -27 -4
-28 37 -28 l42 0 -6 53 c-4 28 -10 91 -13 140 -8 96 -27 119 -37 45z"/>
<path d="M6620 1943 c0 -80 24 -253 35 -253 12 0 16 23 31 203 l7 77 -37 0
c-32 0 -36 -3 -36 -27z"/>
<path d="M6472 1935 l-53 -25 77 -100 c42 -55 82 -104 89 -110 8 -6 6 30 -6
123 -10 73 -18 133 -18 135 -3 8 -44 -2 -89 -23z"/>
<path d="M6746 1949 c-3 -8 -10 -61 -16 -119 -6 -58 -14 -114 -16 -125 -6 -24
28 13 116 127 l60 76 -43 21 c-61 29 -96 36 -101 20z"/>
<path d="M6350 1850 c-11 -11 -20 -24 -20 -29 0 -10 204 -181 215 -181 17 0
-7 40 -80 130 -44 55 -83 99 -87 100 -5 0 -17 -9 -28 -20z"/>
<path d="M6838 1762 c-52 -63 -84 -110 -78 -116 8 -8 220 158 220 174 0 7 -44
50 -51 50 -2 0 -43 -49 -91 -108z"/>
<path d="M6263 1723 c-41 -96 -51 -87 104 -106 75 -9 138 -15 140 -14 3 4
-194 156 -210 163 -10 3 -21 -11 -34 -43z"/>
<path d="M6903 1687 c-57 -45 -99 -83 -95 -84 4 -1 66 6 137 15 120 16 130 19
127 37 -7 37 -44 115 -56 114 -6 0 -57 -37 -113 -82z"/>
<path d="M6616 1584 c-19 -18 -21 -65 -4 -82 7 -7 26 -12 43 -12 38 0 55 16
55 50 0 50 -60 78 -94 44z"/>
<path d="M6220 1541 c0 -41 1 -42 28 -37 15 3 61 8 102 11 117 9 150 16 150
29 0 9 -26 15 -82 20 -46 4 -109 10 -140 13 l-58 6 0 -42z"/>
<path d="M6911 1566 c-66 -7 -106 -16 -109 -23 -2 -7 2 -13 10 -14 7 0 69 -6
138 -13 69 -7 128 -11 133 -9 4 2 7 20 7 39 0 33 -1 34 -37 33 -21 -1 -85 -7
-142 -13z"/>
<path d="M6346 1464 c-55 -7 -103 -15 -107 -16 -9 -3 25 -103 42 -124 9 -11
29 1 111 63 54 42 102 81 104 85 7 10 -29 9 -150 -8z"/>
<path d="M6814 1472 c2 -4 50 -43 104 -85 l100 -77 15 23 c15 23 47 110 43
114 -3 4 -227 33 -249 33 -10 0 -16 -4 -13 -8z"/>
<path d="M6429 1354 c-57 -47 -105 -87 -106 -88 -2 -1 10 -15 26 -30 l28 -27
87 105 c80 98 98 126 78 126 -5 0 -55 -39 -113 -86z"/>
<path d="M6757 1434 c-6 -6 51 -80 145 -187 l33 -39 27 29 27 28 -104 85
c-110 89 -117 94 -128 84z"/>
<path d="M6506 1288 l-87 -113 48 -22 c81 -36 92 -37 97 -11 6 25 34 258 31
258 -1 0 -41 -51 -89 -112z"/>
<path d="M6713 1385 c3 -11 11 -70 18 -132 7 -62 15 -117 19 -123 8 -14 121
28 127 46 2 6 -31 56 -73 110 -92 119 -98 125 -91 99z"/>
<path d="M6637 1338 c-3 -29 -9 -92 -13 -140 l-7 -88 37 0 c43 0 42 -5 25 167
-13 125 -32 152 -42 61z"/>
</g>
</svg>
