<?xml version="1.0" standalone="no"?>
<!DOCTYPE svg PUBLIC "-//W3C//DTD SVG 20010904//EN"
 "http://www.w3.org/TR/2001/REC-SVG-20010904/DTD/svg10.dtd">
<svg version="1.0" xmlns="http://www.w3.org/2000/svg"
 width="876.000000pt" height="493.000000pt" viewBox="0 0 876.000000 493.000000"
 preserveAspectRatio="xMidYMid meet">
<metadata>
Created by potrace 1.16, written by Peter Selinger 2001-2019
</metadata>
<g transform="translate(0.000000,493.000000) scale(0.100000,-0.100000)"
fill="#000000" stroke="none">
<path d="M3225 3630 c-460 -8 -595 -17 -730 -49 -113 -27 -237 -84 -999 -455
l-258 -126 -182 -21 c-528 -60 -729 -88 -747 -105 -22 -19 -59 -131 -59 -175
0 -27 3 -29 38 -29 48 0 58 -11 109 -115 71 -143 96 -215 84 -242 -10 -22 -15
-23 -126 -23 -85 0 -115 -3 -115 -12 0 -7 -22 -25 -49 -41 -45 -25 -50 -31
-57 -73 -14 -96 -2 -153 55 -252 29 -50 63 -100 77 -111 26 -20 165 -56 544
-141 214 -48 232 -50 372 -51 110 0 156 4 184 16 20 8 53 15 73 15 l37 0 21
-72 c55 -184 233 -348 421 -387 245 -51 504 71 616 289 l39 75 63 -3 c51 -3
66 -8 74 -23 14 -24 37 -24 101 1 50 20 82 21 1607 31 l1557 11 325 -30 c178
-17 328 -28 332 -26 4 3 8 18 8 34 0 27 2 28 61 35 67 8 70 6 89 -45 39 -104
143 -226 241 -283 152 -89 357 -100 520 -28 147 65 276 219 312 370 l11 50 50
7 c48 6 52 5 76 -25 15 -17 36 -31 47 -31 28 0 247 64 307 89 39 17 54 33 96
98 76 118 86 151 71 229 -18 98 -27 111 -102 147 -46 22 -69 39 -73 55 -6 20
-13 22 -67 22 -106 0 -144 27 -203 147 -56 111 -55 114 37 142 42 14 76 30 74
35 -2 6 -28 28 -58 49 -66 45 29 28 -1160 207 -476 72 -894 130 -928 130 -33
0 -70 -6 -81 -12 -16 -10 -24 -10 -44 2 -830 514 -896 556 -892 571 2 11 -8
22 -30 32 -47 23 -267 64 -434 81 -188 19 -766 26 -1335 16z m707 -432 c-2
-194 -7 -356 -11 -361 -4 -4 -221 -3 -482 3 -261 5 -505 10 -542 10 l-69 0 7
270 c4 149 10 296 14 327 l6 57 45 13 c89 27 161 31 596 32 l440 1 -4 -352z
m743 327 c71 -9 143 -24 160 -32 16 -8 145 -80 286 -160 l256 -144 12 -56 c6
-31 11 -60 11 -65 0 -4 -22 -8 -49 -8 -45 0 -49 -2 -56 -27 -3 -15 -3 -61 0
-102 6 -65 10 -79 33 -99 l27 -23 -535 6 c-294 3 -547 8 -562 11 -15 3 -29 13
-32 22 -8 26 -136 679 -136 693 0 17 415 6 585 -16z m-1924 -375 l-16 -295
-215 3 c-254 3 -440 12 -439 21 2 20 675 580 684 569 1 -2 -5 -136 -14 -298z
m-584 -998 c281 -88 395 -424 226 -670 -47 -68 -136 -135 -219 -162 -54 -18
-82 -22 -159 -18 -82 3 -101 8 -167 41 -267 132 -332 474 -130 689 114 122
290 169 449 120z m5285 -2 c200 -62 333 -276 298 -479 -29 -170 -138 -299
-297 -352 -97 -32 -223 -25 -315 18 -368 173 -332 696 57 819 62 20 183 17
257 -6z"/>
<path d="M1984 1796 c-73 -62 5 -179 89 -134 55 29 63 84 18 129 -36 35 -70
37 -107 5z"/>
<path d="M7285 1810 c-54 -21 -66 -98 -20 -137 30 -27 55 -29 94 -8 59 30 56
110 -6 143 -25 14 -40 14 -68 2z"/>
</g>
</svg>
