<?xml version="1.0" standalone="no"?>
<!DOCTYPE svg PUBLIC "-//W3C//DTD SVG 20010904//EN"
 "http://www.w3.org/TR/2001/REC-SVG-20010904/DTD/svg10.dtd">
<svg version="1.0" xmlns="http://www.w3.org/2000/svg"
 width="882.000000pt" height="496.000000pt" viewBox="0 0 882.000000 496.000000"
 preserveAspectRatio="xMidYMid meet">
<metadata>
Created by potrace 1.16, written by Peter Selinger 2001-2019
</metadata>
<g transform="translate(0.000000,496.000000) scale(0.100000,-0.100000)"
fill="#000000" stroke="none">
<path d="M2740 3963 c-292 -10 -649 -43 -910 -83 -69 -10 -159 -22 -200 -25
-41 -3 -154 -17 -250 -31 -96 -13 -176 -24 -177 -24 -2 0 -3 -9 -3 -20 0 -11
21 -52 47 -90 27 -41 43 -74 37 -79 -5 -5 -110 -71 -234 -148 -124 -76 -279
-173 -345 -214 -66 -41 -126 -74 -132 -74 -24 0 -94 -50 -98 -70 -2 -11 -9
-112 -15 -225 -10 -169 -14 -208 -29 -225 -9 -11 -38 -44 -63 -72 -55 -64 -57
-69 -68 -360 -7 -195 -6 -222 11 -283 11 -40 16 -81 12 -103 -8 -51 24 -92 85
-110 26 -8 174 -42 330 -77 l282 -64 37 35 c24 22 34 28 29 15 -10 -29 13
-181 38 -251 35 -97 83 -171 161 -250 154 -155 380 -224 595 -181 49 10 121
34 170 58 69 33 101 57 171 127 100 100 159 206 185 331 8 41 16 75 17 76 1 1
803 -5 1782 -12 978 -8 1785 -12 1792 -10 7 3 13 17 13 31 0 54 18 20 33 -62
44 -238 214 -435 446 -516 77 -27 99 -31 206 -31 99 -1 133 3 195 22 226 71
402 254 457 477 10 39 19 72 20 74 1 2 20 -8 41 -22 l38 -27 224 26 c124 14
324 37 445 52 l219 27 28 40 c15 22 33 57 40 79 11 37 11 40 -15 60 l-26 21
29 150 c17 83 30 164 30 181 0 35 -51 143 -146 310 -133 234 -168 270 -330
345 -184 85 -423 150 -769 209 -396 68 -947 129 -970 109 -5 -5 -19 -9 -32 -9
-20 0 -447 200 -1217 569 l-169 81 21 23 c12 13 22 26 22 29 0 15 -213 78
-381 113 -88 19 -280 41 -474 55 -304 21 -952 34 -1235 23z m714 -160 c15 -98
86 -736 82 -740 -4 -5 -1494 63 -1580 71 -27 3 -51 8 -54 10 -2 3 42 131 98
284 l102 279 64 12 c158 29 838 98 1092 110 87 4 164 9 174 9 12 2 18 -9 22
-35z m466 7 c340 -23 531 -56 683 -116 210 -83 984 -484 1066 -551 13 -12 28
-46 41 -98 10 -43 18 -81 16 -83 -3 -2 -1727 73 -1835 81 l-35 2 -86 360 c-47
198 -89 372 -93 388 -7 27 -7 27 45 27 29 0 118 -5 198 -10z m-1964 -157 c-4
-10 -50 -127 -103 -260 -69 -173 -101 -243 -112 -243 -28 0 -238 58 -297 82
-61 25 -102 66 -129 130 -27 66 -5 80 314 200 125 46 305 106 325 107 4 1 5
-7 2 -16z m-922 -535 c68 -50 78 -74 44 -103 -14 -12 -114 -79 -223 -150 -205
-132 -243 -148 -311 -131 l-27 7 7 123 c4 67 13 147 19 177 12 53 13 55 76 87
64 32 65 32 211 32 l147 0 57 -42z m6675 -408 c85 -21 226 -71 344 -120 l76
-32 27 -74 c29 -82 27 -109 -9 -100 -14 3 -32 -1 -43 -9 -28 -21 -40 -19 -195
30 -135 44 -150 51 -315 160 -166 110 -192 134 -167 158 15 15 206 7 282 -13z
m-5807 -631 c89 -30 137 -60 205 -132 64 -66 85 -100 113 -183 68 -198 -1
-420 -171 -548 -280 -211 -686 -69 -774 271 -65 250 75 505 325 590 88 30 216
31 302 2z m4923 7 c215 -57 366 -251 367 -471 1 -140 -40 -242 -141 -348 -97
-102 -212 -150 -356 -149 -138 0 -255 52 -353 156 -88 93 -132 204 -132 336 0
221 135 402 349 471 68 22 196 24 266 5z"/>
<path d="M1715 2013 c8 -69 25 -227 25 -235 0 -5 6 -8 13 -8 10 0 17 33 25
123 18 177 19 167 -28 167 l-41 0 6 -47z"/>
<path d="M1620 2041 c-14 -5 -44 -18 -68 -30 l-43 -22 67 -87 c94 -122 114
-145 114 -135 1 30 -34 283 -39 282 -3 0 -17 -4 -31 -8z"/>
<path d="M1850 2048 c-1 -2 -9 -66 -19 -143 -10 -77 -17 -141 -16 -143 4 -5
175 217 175 227 0 11 -139 70 -140 59z"/>
<path d="M1430 1925 c-15 -16 -20 -29 -14 -34 59 -58 220 -179 227 -172 9 9
-166 231 -182 231 -4 0 -18 -11 -31 -25z"/>
<path d="M1959 1858 c-98 -121 -103 -128 -93 -138 5 -5 60 34 121 85 l113 93
-27 26 c-14 14 -29 26 -32 26 -4 0 -41 -41 -82 -92z"/>
<path d="M1345 1798 c-43 -96 -49 -90 109 -110 77 -10 141 -16 143 -14 3 3
-185 152 -214 169 -10 6 -20 -6 -38 -45z"/>
<path d="M2010 1758 c-112 -88 -114 -91 -75 -85 22 3 88 12 148 18 81 10 107
16 107 27 0 19 -51 132 -59 131 -3 0 -58 -41 -121 -91z"/>
<path d="M1300 1610 c0 -47 -9 -46 172 -26 112 11 139 18 125 32 -5 5 -237 32
-284 34 -8 0 -13 -14 -13 -40z"/>
<path d="M2032 1635 c-62 -6 -115 -15 -118 -18 -16 -15 13 -25 93 -31 49 -4
112 -10 141 -13 l52 -6 0 42 c0 48 13 46 -168 26z"/>
<path d="M1448 1531 c-70 -9 -129 -19 -132 -22 -6 -5 39 -118 52 -131 7 -7
165 105 222 158 17 17 28 17 -142 -5z"/>
<path d="M1900 1547 c12 -13 226 -177 231 -177 10 0 61 120 56 133 -3 8 -50
18 -123 26 -66 7 -130 15 -144 18 -14 3 -23 3 -20 0z"/>
<path d="M1530 1424 c-58 -47 -109 -90 -114 -95 -11 -10 30 -59 48 -58 6 0 30
23 52 52 23 29 63 78 89 110 75 91 43 87 -75 -9z"/>
<path d="M1865 1500 c-8 -13 -3 -20 89 -133 44 -53 85 -97 91 -97 14 0 45 32
45 48 0 16 -218 193 -225 182z"/>
<path d="M1600 1347 c-47 -61 -85 -113 -84 -116 1 -8 84 -49 115 -56 l26 -6
17 141 c10 78 16 143 14 145 -2 1 -41 -47 -88 -108z"/>
<path d="M1814 1440 c3 -14 10 -68 16 -120 17 -147 18 -152 43 -145 36 10 117
48 117 55 0 6 -151 204 -172 225 -6 7 -8 2 -4 -15z"/>
<path d="M1740 1443 c0 -9 -17 -167 -25 -235 l-6 -48 41 0 c47 0 45 -13 28
163 -8 92 -15 127 -25 127 -7 0 -13 -3 -13 -7z"/>
<path d="M6663 2018 c3 -24 9 -84 13 -135 7 -95 16 -125 32 -108 7 8 33 223
32 273 0 7 -15 12 -41 12 l-42 0 6 -42z"/>
<path d="M6535 2029 c-84 -34 -84 -31 13 -156 47 -61 88 -111 89 -109 8 7 -32
286 -41 285 -6 0 -33 -9 -61 -20z"/>
<path d="M6796 2028 c-8 -35 -35 -262 -32 -265 2 -2 42 47 89 109 66 84 84
115 76 124 -9 11 -108 54 -124 54 -3 0 -7 -10 -9 -22z"/>
<path d="M6382 1927 c-12 -13 -22 -26 -22 -29 0 -5 195 -168 217 -181 6 -4 14
-3 17 2 6 9 -170 231 -183 231 -4 0 -17 -10 -29 -23z"/>
<path d="M6897 1844 c-76 -92 -101 -134 -82 -134 10 0 225 181 225 189 0 8
-43 51 -51 51 -3 0 -44 -48 -92 -106z"/>
<path d="M6306 1828 c-15 -24 -49 -119 -44 -123 6 -4 281 -35 284 -32 3 3
-133 111 -208 165 -15 11 -19 9 -32 -10z"/>
<path d="M6964 1762 c-62 -48 -111 -88 -110 -89 1 -1 66 5 145 14 l142 17 -6
25 c-10 39 -47 121 -54 121 -3 -1 -56 -40 -117 -88z"/>
<path d="M6250 1609 l0 -42 53 6 c28 3 91 9 140 13 80 6 109 16 93 31 -4 5
-234 32 -273 33 -9 0 -13 -15 -13 -41z"/>
<path d="M6982 1635 c-113 -12 -134 -18 -116 -34 7 -7 224 -32 272 -31 7 0 12
15 12 40 0 46 12 45 -168 25z"/>
<path d="M6398 1531 c-70 -9 -130 -19 -133 -23 -8 -8 33 -114 49 -127 10 -8
38 9 117 70 57 44 108 85 114 90 11 11 15 11 -147 -10z"/>
<path d="M6867 1533 c12 -10 65 -51 118 -92 107 -83 101 -84 135 8 14 37 18
56 10 61 -6 4 -61 12 -123 19 -62 7 -123 15 -137 18 l-25 5 22 -19z"/>
<path d="M6473 1419 c-54 -45 -102 -85 -107 -90 -10 -9 29 -59 45 -59 8 0 189
215 189 225 0 19 -42 -6 -127 -76z"/>
<path d="M6810 1489 c0 -12 169 -219 180 -219 8 0 50 44 50 52 0 9 -209 178
-220 178 -5 0 -10 -5 -10 -11z"/>
<path d="M6552 1351 c-45 -58 -83 -110 -84 -116 -2 -11 72 -50 112 -60 l26 -6
17 142 c9 78 16 143 15 144 -2 2 -40 -45 -86 -104z"/>
<path d="M6763 1440 c3 -14 11 -75 18 -137 7 -62 15 -117 19 -123 5 -8 24 -4
61 10 92 34 91 28 8 135 -41 53 -82 106 -92 118 l-19 22 5 -25z"/>
<path d="M6686 1418 c-5 -33 -26 -231 -26 -248 0 -6 18 -10 40 -10 47 0 45
-12 26 169 -11 116 -29 156 -40 89z"/>
</g>
</svg>
