<?xml version="1.0" standalone="no"?>
<!DOCTYPE svg PUBLIC "-//W3C//DTD SVG 20010904//EN"
 "http://www.w3.org/TR/2001/REC-SVG-20010904/DTD/svg10.dtd">
<svg version="1.0" xmlns="http://www.w3.org/2000/svg"
 width="844.000000pt" height="475.000000pt" viewBox="0 0 844.000000 475.000000"
 preserveAspectRatio="xMidYMid meet">

<g transform="translate(0.000000,475.000000) scale(0.100000,-0.100000)"
fill="#000000" stroke="none">
<path d="M3190 4014 c-438 -10 -818 -39 -1335 -105 -237 -29 -489 -65 -532
-74 -31 -7 -44 -72 -18 -91 10 -7 15 -19 12 -26 -9 -23 -124 -158 -284 -335
-126 -139 -164 -175 -203 -192 -27 -12 -57 -21 -67 -21 -37 0 -177 -119 -160
-136 2 -3 29 2 58 10 95 27 205 36 428 36 170 0 221 -3 236 -14 15 -11 17 -17
8 -27 -7 -8 -214 -117 -462 -244 -394 -201 -451 -233 -456 -256 -3 -14 -22
-41 -41 -60 -20 -19 -45 -52 -57 -74 -23 -44 -25 -82 -18 -375 1 -91 0 -180
-4 -198 -9 -40 33 -183 69 -233 14 -19 35 -51 46 -72 25 -46 42 -54 236 -108
l146 -41 34 18 c26 14 35 27 42 59 7 37 10 40 45 43 l37 3 0 -56 c0 -183 132
-403 303 -504 105 -62 179 -83 307 -89 204 -8 336 44 480 188 65 64 95 103
122 160 38 78 68 181 68 238 0 33 0 33 43 30 l42 -3 10 -72 c6 -39 12 -74 15
-76 3 -2 885 -7 1961 -11 l1956 -6 11 82 c7 45 15 85 20 89 4 4 19 11 35 14
26 7 27 6 27 -38 0 -69 19 -144 55 -222 84 -182 239 -311 434 -361 88 -22 261
-15 351 14 226 74 407 288 435 515 4 31 12 57 17 57 26 0 48 -23 48 -50 0 -53
8 -60 68 -60 55 0 246 51 338 90 41 18 48 27 86 106 34 71 39 89 30 105 -9 14
-3 62 28 231 22 117 38 225 35 239 -3 14 -34 52 -68 85 -60 58 -70 64 -272
144 -115 46 -242 98 -281 116 -81 36 -77 22 -48 162 10 48 21 75 32 79 13 6
124 -17 171 -35 22 -8 -5 35 -34 54 -24 16 -419 118 -890 230 -148 35 -292 72
-320 81 -27 9 -180 89 -340 178 -649 362 -998 541 -1211 620 -236 87 -582 161
-839 179 -94 7 -804 14 -985 10z m393 -206 c4 -62 7 -265 7 -450 l0 -338 -77
1 c-271 2 -1104 26 -1109 32 -8 7 10 794 17 802 6 5 414 43 589 54 74 4 232 9
351 10 l216 1 6 -112z m487 102 c401 -23 744 -106 1210 -290 162 -64 414 -181
424 -198 10 -16 90 -501 84 -508 -3 -3 -22 -2 -41 1 -45 9 -49 26 -30 120 14
70 14 76 -5 118 -16 36 -30 49 -73 70 -52 26 -102 34 -126 19 -6 -4 -14 -51
-18 -109 -6 -86 -5 -107 9 -127 20 -31 21 -65 2 -72 -8 -3 -196 4 -418 15
-222 11 -567 28 -768 37 -201 9 -368 19 -372 23 -5 4 -148 880 -148 907 0 6
81 5 270 -6z m-1704 -297 c-4 -131 -9 -312 -12 -402 l-6 -163 -267 7 c-146 4
-293 10 -326 14 -71 7 -63 -13 -94 262 -28 246 -28 348 -1 377 46 49 123 71
355 101 88 12 189 25 225 30 36 5 80 9 99 10 l33 1 -6 -237z m3537 -304 c207
-132 438 -316 453 -361 9 -29 -16 -45 -80 -53 -71 -9 -387 11 -396 25 -4 6
-26 104 -49 218 -23 114 -45 215 -47 225 -3 9 -3 17 1 17 3 0 56 -32 118 -71z
m-4220 -1364 c94 -20 178 -67 243 -137 90 -98 125 -187 125 -318 0 -132 -35
-220 -127 -319 -249 -269 -695 -147 -789 215 -46 176 30 376 184 482 118 82
230 106 364 77z m5382 5 c192 -31 354 -196 385 -392 47 -302 -226 -575 -527
-528 -252 40 -432 281 -394 526 34 220 228 393 451 403 14 0 52 -4 85 -9z"/>
<path d="M1454 1892 c-27 -10 -65 -27 -82 -38 l-32 -20 41 -60 c59 -83 150
-185 160 -178 24 15 -4 315 -29 314 -4 -1 -30 -9 -58 -18z"/>
<path d="M1656 1902 c-21 -34 -39 -307 -20 -307 21 0 194 211 194 237 0 21
-164 87 -174 70z"/>
<path d="M1211 1678 c-17 -35 -32 -76 -33 -92 -3 -27 0 -30 37 -38 22 -5 88
-12 148 -16 98 -7 107 -6 107 10 0 19 -62 80 -143 141 -86 65 -82 65 -116 -5z"/>
<path d="M1864 1693 c-151 -113 -204 -179 -136 -168 15 2 68 6 117 9 50 3 106
10 127 16 36 10 36 11 26 48 -16 56 -57 132 -72 132 -7 0 -35 -17 -62 -37z"/>
<path d="M1556 1524 c-21 -21 -20 -47 3 -68 41 -37 97 14 66 60 -18 28 -46 31
-69 8z"/>
<path d="M1390 1454 c-81 -6 -210 -26 -215 -34 -7 -12 22 -101 47 -142 l23
-36 54 36 c121 81 210 186 154 180 -10 -1 -38 -3 -63 -4z"/>
<path d="M1700 1441 c0 -27 197 -191 229 -191 14 0 68 112 73 150 3 23 -1 25
-62 36 -36 6 -104 14 -152 17 -80 6 -88 4 -88 -12z"/>
<path d="M1477 1328 c-30 -35 -73 -90 -96 -122 l-41 -59 23 -16 c39 -28 151
-62 158 -48 23 41 39 290 20 301 -5 4 -34 -22 -64 -56z"/>
<path d="M1624 1377 c-6 -17 12 -228 24 -272 7 -24 13 -29 33 -27 37 5 149 59
149 73 0 22 -165 228 -191 237 -5 2 -12 -3 -15 -11z"/>
<path d="M6852 1890 c-30 -10 -67 -27 -83 -37 l-29 -19 27 -39 c49 -74 165
-205 175 -198 23 13 -6 314 -30 313 -4 -1 -31 -9 -60 -20z"/>
<path d="M7057 1903 c-19 -31 -41 -299 -26 -309 15 -9 153 148 189 215 11 22
10 26 -11 42 -13 10 -46 26 -74 35 -27 9 -55 19 -61 21 -7 2 -14 1 -17 -4z"/>
<path d="M6611 1678 c-16 -35 -32 -75 -35 -90 -6 -25 -3 -28 31 -37 91 -23
265 -31 271 -13 4 13 -72 86 -151 145 -86 65 -82 65 -116 -5z"/>
<path d="M7250 1681 c-106 -80 -154 -126 -148 -142 5 -12 24 -13 115 -7 61 3
129 11 151 17 l41 11 -16 53 c-17 61 -50 117 -66 117 -7 0 -41 -22 -77 -49z"/>
<path d="M6957 1522 c-22 -25 -21 -45 3 -67 41 -37 102 24 64 66 -22 24 -46
24 -67 1z"/>
<path d="M6745 1449 c-49 -4 -108 -11 -130 -16 -36 -8 -40 -12 -37 -37 4 -41
49 -135 66 -142 30 -11 243 164 232 191 -3 8 -13 14 -23 14 -10 -1 -58 -5
-108 -10z"/>
<path d="M7100 1442 c0 -26 197 -192 228 -192 24 0 93 162 74 174 -12 7 -143
25 -224 30 -70 5 -78 4 -78 -12z"/>
<path d="M6877 1327 c-64 -73 -127 -160 -127 -175 0 -16 58 -48 117 -65 l53
-16 11 42 c17 65 27 266 12 271 -6 3 -36 -23 -66 -57z"/>
<path d="M7026 1382 c-10 -16 13 -245 29 -299 8 -25 175 41 175 69 0 22 -175
238 -192 238 -4 0 -9 -4 -12 -8z"/>
</g>
</svg>
