<?xml version="1.0" standalone="no"?>
<!DOCTYPE svg PUBLIC "-//W3C//DTD SVG 20010904//EN"
 "http://www.w3.org/TR/2001/REC-SVG-20010904/DTD/svg10.dtd">
<svg version="1.0" xmlns="http://www.w3.org/2000/svg"
 width="764.000000pt" height="429.000000pt" viewBox="0 0 764.000000 429.000000"
 preserveAspectRatio="xMidYMid meet">

<g transform="translate(0.000000,429.000000) scale(0.100000,-0.100000)"
fill="#000000" stroke="none">
<path d="M2685 3209 c-272 -19 -540 -52 -727 -90 -108 -21 -450 -102 -758
-179 -309 -77 -576 -140 -593 -140 -18 0 -81 9 -141 20 -125 23 -197 25 -214
8 -21 -21 -13 -70 24 -135 39 -70 65 -88 202 -137 101 -36 112 -43 112 -71 0
-29 -51 -90 -94 -112 -25 -13 -52 -15 -162 -9 l-132 7 -26 -33 c-33 -44 -45
-99 -52 -238 -5 -105 -4 -123 20 -204 15 -49 43 -123 63 -165 19 -42 38 -89
42 -106 9 -42 73 -72 301 -139 233 -69 224 -68 228 -33 3 24 7 27 40 27 37 0
37 -1 61 -67 81 -234 305 -393 553 -393 105 0 168 15 266 61 97 47 187 129
247 226 37 61 39 63 74 58 20 -3 53 -7 74 -9 24 -2 44 -12 53 -25 8 -11 29
-23 47 -26 18 -3 784 -12 1704 -19 l1672 -12 23 -30 c102 -133 257 -212 433
-221 176 -9 318 43 447 166 l68 63 117 -18 c90 -14 118 -15 121 -6 9 29 34 39
109 45 79 6 316 48 386 67 50 15 46 37 -12 69 -42 23 -43 24 -37 64 4 23 12
51 19 63 7 12 20 36 31 54 19 35 19 38 17 322 l-2 148 -34 34 c-69 69 -241
151 -556 265 -297 107 -489 161 -687 191 -128 20 -693 79 -962 101 -117 9
-154 16 -192 35 -137 69 -742 318 -990 408 -309 112 -401 126 -788 124 -151 0
-329 -5 -395 -9z m510 -149 c420 -26 559 -62 948 -248 151 -72 157 -76 140
-94 -9 -10 -18 -41 -21 -73 -4 -54 -5 -55 -35 -55 -29 0 -772 50 -1346 90
-151 11 -277 23 -281 27 -4 4 -31 79 -60 167 -58 178 -60 171 30 181 30 4 62
8 70 9 36 8 400 5 555 -4z m-746 -192 c17 -75 31 -142 31 -148 0 -8 -20 -10
-67 -5 -143 13 -309 36 -340 46 -38 12 -135 115 -131 138 3 17 66 36 323 96
99 23 142 29 146 21 4 -6 21 -73 38 -148z m4427 -623 c147 -55 374 -186 374
-216 0 -28 -164 8 -265 59 -92 46 -235 151 -235 173 0 17 59 9 126 -16z
m-5271 -159 c205 -74 335 -258 335 -477 0 -240 -167 -444 -405 -494 -87 -18
-113 -18 -200 0 -100 21 -185 66 -253 134 -291 292 -144 773 263 861 65 15
185 3 260 -24z m4558 19 c346 -73 513 -480 316 -774 -174 -260 -539 -303 -764
-90 -114 108 -158 211 -158 369 0 161 45 264 163 374 69 63 141 101 231 120
83 19 129 19 212 1z"/>
<path d="M1305 2036 c-74 -24 -160 -77 -144 -89 2 -2 56 -48 119 -102 l115
-99 11 115 c7 63 12 131 13 152 1 36 0 37 -36 36 -21 0 -56 -6 -78 -13z"/>
<path d="M1505 1914 c4 -77 10 -144 14 -150 4 -8 46 22 114 78 104 87 107 91
91 110 -22 23 -147 84 -193 93 l-34 7 8 -138z"/>
<path d="M1061 1852 c-35 -54 -55 -107 -66 -171 l-7 -43 111 7 c61 4 133 10
160 14 l49 6 -100 118 c-54 64 -103 117 -108 117 -4 0 -22 -22 -39 -48z"/>
<path d="M1695 1768 c-102 -120 -107 -111 74 -123 126 -8 120 -14 95 80 -15
61 -58 145 -73 145 -5 0 -48 -46 -96 -102z"/>
<path d="M1407 1652 c-23 -25 -22 -85 1 -105 43 -39 122 -3 122 54 0 56 -87
91 -123 51z"/>
<path d="M995 1539 c19 -90 92 -236 114 -227 4 2 51 53 104 114 l96 112 -52 6
c-29 3 -88 8 -132 11 -44 4 -93 9 -109 12 -27 5 -28 4 -21 -28z"/>
<path d="M1810 1554 c-8 -1 -59 -6 -112 -9 l-98 -7 87 -101 c47 -56 89 -103
92 -105 10 -3 67 97 79 138 25 86 25 90 -5 89 -16 -1 -35 -3 -43 -5z"/>
<path d="M1280 1359 c-58 -49 -105 -95 -105 -102 0 -21 126 -78 189 -84 54 -6
58 -5 53 13 -3 10 -9 74 -13 142 -3 67 -9 122 -13 121 -3 0 -53 -41 -111 -90z"/>
<path d="M1516 1438 c-6 -19 -25 -262 -21 -267 16 -16 213 69 222 96 2 6 -41
49 -97 97 -62 55 -102 82 -104 74z"/>
<path d="M5923 2035 c-44 -13 -128 -59 -138 -74 -3 -5 48 -55 112 -111 l118
-102 7 39 c3 21 9 89 13 151 l7 112 -38 -1 c-22 0 -58 -6 -81 -14z"/>
<path d="M6125 1938 c4 -62 10 -130 14 -151 l6 -38 108 91 c59 50 105 96 102
101 -20 32 -179 109 -226 109 -8 0 -9 -31 -4 -112z"/>
<path d="M5682 1848 c-36 -60 -48 -93 -61 -161 l-9 -49 117 7 c64 4 135 10
158 14 l43 6 -98 117 c-53 64 -102 117 -107 118 -6 0 -25 -24 -43 -52z"/>
<path d="M6321 1772 l-92 -107 33 -7 c18 -3 79 -10 137 -13 l104 -8 -7 48 c-6
47 -41 135 -69 175 -13 18 -19 13 -106 -88z"/>
<path d="M6027 1652 c-23 -25 -22 -85 1 -105 43 -39 122 -3 122 54 0 56 -87
91 -123 51z"/>
<path d="M5620 1543 c1 -61 87 -239 112 -231 4 2 51 53 102 113 l94 110 -29 6
c-17 4 -78 10 -137 13 -59 4 -115 10 -124 12 -14 4 -18 -1 -18 -23z"/>
<path d="M6350 1549 c-58 -5 -109 -10 -114 -12 -11 -4 155 -201 169 -202 14 0
83 142 91 188 7 43 24 40 -146 26z"/>
<path d="M5903 1359 c-61 -52 -111 -98 -109 -104 5 -20 136 -76 190 -82 l56
-6 -6 84 c-4 46 -9 111 -13 143 l-6 60 -112 -95z"/>
<path d="M6137 1428 c-3 -13 -9 -76 -13 -142 l-7 -118 34 7 c43 9 131 48 169
75 l30 21 -83 71 c-45 40 -92 80 -103 90 -21 19 -22 19 -27 -4z"/>
</g>
</svg>
