<?xml version="1.0" standalone="no"?>
<!DOCTYPE svg PUBLIC "-//W3C//DTD SVG 20010904//EN"
 "http://www.w3.org/TR/2001/REC-SVG-20010904/DTD/svg10.dtd">
<svg version="1.0" xmlns="http://www.w3.org/2000/svg"
 width="807.000000pt" height="455.000000pt" viewBox="0 0 807.000000 455.000000"
 preserveAspectRatio="xMidYMid meet">

<g transform="translate(0.000000,455.000000) scale(0.100000,-0.100000)"
fill="#000000" stroke="none">
<path d="M2725 3509 c-305 -19 -856 -91 -1420 -185 -287 -48 -355 -62 -355
-73 0 -24 77 -71 115 -71 l27 0 -27 -32 c-15 -18 -106 -115 -202 -215 l-175
-183 -52 0 c-56 0 -67 -7 -116 -79 l-24 -34 40 7 c85 15 224 18 328 7 115 -13
146 -22 146 -45 0 -17 -156 -130 -287 -208 -93 -56 -164 -80 -278 -93 -47 -6
-69 -15 -103 -42 -23 -19 -46 -43 -52 -53 -14 -26 -39 -205 -41 -291 -1 -44
-7 -82 -15 -94 -8 -11 -14 -29 -14 -42 0 -56 145 -321 195 -357 25 -18 49 -22
153 -27 134 -6 136 -7 147 -68 3 -20 25 -74 48 -121 32 -66 59 -103 122 -166
140 -141 277 -199 475 -198 96 1 128 5 195 27 202 67 354 213 428 412 l22 60
5 -40 5 -40 65 -2 c36 -1 425 -7 865 -13 440 -6 890 -12 1000 -15 110 -3 306
-7 435 -10 129 -3 393 -13 585 -21 193 -8 404 -14 470 -12 l120 3 3 28 c3 26
5 27 62 27 l59 0 33 -62 c43 -83 172 -213 258 -261 109 -60 197 -81 330 -81
135 1 226 26 338 92 83 49 196 166 237 244 l30 58 83 0 c80 0 82 -1 82 -24 0
-14 3 -27 8 -29 10 -6 269 29 323 43 91 25 282 139 322 192 19 26 19 29 4 46
-14 15 -17 46 -19 180 -3 151 -2 162 17 176 17 12 20 26 20 96 -1 77 -3 82
-32 112 l-31 31 -16 -31 c-14 -28 -21 -31 -82 -38 -99 -10 -204 1 -254 26 -48
25 -220 192 -244 237 -13 26 -13 33 -1 49 29 41 238 11 458 -65 31 -11 57 -16
57 -11 0 18 -94 90 -168 128 -196 101 -768 284 -1134 361 -295 63 -371 73
-522 70 l-141 -4 -215 119 c-230 126 -479 250 -785 391 -104 48 -194 91 -199
95 -5 5 8 12 28 16 22 4 34 10 29 15 -12 12 -216 53 -365 75 -92 13 -219 17
-688 19 -316 2 -638 -1 -715 -6z m1050 -155 c476 -42 668 -86 920 -211 120
-60 344 -183 350 -193 2 -4 -24 -10 -59 -12 -44 -4 -75 -13 -98 -28 -86 -60
-91 -74 -58 -163 25 -67 41 -81 110 -101 l55 -15 -65 5 c-36 2 -328 23 -650
45 -662 45 -1382 98 -1386 102 -1 1 -4 133 -5 292 l-2 290 159 6 c221 8 527 1
729 -17z m-1020 -276 c-4 -156 -8 -284 -9 -285 -3 -4 -571 48 -686 62 -205 27
-417 64 -461 82 -54 21 -75 65 -58 125 16 61 107 148 184 177 125 47 664 113
969 120 l69 1 -8 -282z m-1303 -1099 c370 -77 511 -527 251 -800 -100 -105
-203 -149 -349 -149 -293 0 -514 254 -474 544 38 271 305 461 572 405z m4940
0 c368 -77 510 -529 252 -799 -100 -105 -206 -150 -351 -150 -142 0 -256 51
-353 157 -105 114 -147 264 -117 409 57 268 308 437 569 383z"/>
<path d="M1205 1916 c-34 -12 -71 -29 -83 -38 l-23 -15 38 -56 c55 -81 163
-198 175 -191 23 15 -11 325 -36 323 -6 0 -38 -10 -71 -23z"/>
<path d="M1426 1932 c-19 -31 -44 -306 -28 -316 13 -8 119 106 173 185 46 69
48 65 -36 104 -59 27 -102 38 -109 27z"/>
<path d="M992 1747 c-21 -25 -62 -123 -62 -148 0 -25 4 -27 73 -37 39 -6 109
-14 155 -18 79 -6 82 -5 82 15 0 14 -30 45 -90 96 -108 90 -143 110 -158 92z"/>
<path d="M1655 1726 c-58 -39 -166 -132 -179 -153 -17 -30 9 -35 125 -23 63 6
130 14 149 18 31 7 35 11 32 38 -4 32 -59 154 -70 154 -4 0 -30 -15 -57 -34z"/>
<path d="M1328 1549 c-21 -12 -24 -59 -6 -77 19 -19 55 -14 72 10 20 29 20 34
-4 58 -22 22 -37 24 -62 9z"/>
<path d="M1065 1463 c-95 -12 -135 -25 -135 -42 0 -26 27 -98 51 -137 l20 -34
59 40 c75 51 180 148 180 166 0 11 -16 14 -72 13 -40 -1 -86 -4 -103 -6z"/>
<path d="M1470 1456 c0 -26 205 -196 237 -196 14 0 66 101 77 152 7 30 6 30
-119 48 -107 15 -195 13 -195 -4z"/>
<path d="M1244 1343 c-28 -32 -72 -87 -98 -122 l-47 -65 23 -18 c27 -21 121
-58 148 -58 20 0 24 11 40 125 14 102 13 195 -3 195 -7 0 -35 -26 -63 -57z"/>
<path d="M1393 1385 c-6 -18 2 -124 19 -232 9 -60 14 -73 29 -73 26 0 125 38
149 58 l21 17 -42 60 c-52 74 -147 185 -160 185 -5 0 -12 -7 -16 -15z"/>
<path d="M6155 1921 c-48 -17 -73 -29 -104 -50 -11 -7 -5 -22 33 -75 64 -89
156 -187 168 -179 22 13 -12 323 -36 323 -6 -1 -34 -9 -61 -19z"/>
<path d="M6352 1878 c-18 -98 -26 -254 -14 -262 12 -7 120 107 174 188 32 47
38 60 27 68 -25 17 -114 55 -145 62 l-30 7 -12 -63z"/>
<path d="M5908 1708 c-30 -61 -49 -126 -40 -132 12 -7 144 -25 230 -32 78 -6
82 -5 82 14 0 26 -209 202 -240 202 -4 0 -18 -24 -32 -52z"/>
<path d="M6574 1710 c-111 -80 -168 -135 -161 -154 6 -16 17 -17 85 -11 83 6
213 25 224 31 16 10 -53 184 -72 184 -4 0 -38 -22 -76 -50z"/>
<path d="M6268 1549 c-21 -12 -24 -59 -6 -77 7 -7 21 -12 33 -12 12 0 26 5 33
12 19 19 15 66 -7 78 -24 12 -31 12 -53 -1z"/>
<path d="M6020 1465 c-8 -2 -47 -8 -86 -15 l-72 -11 9 -40 c10 -43 53 -134 67
-143 10 -6 140 90 200 147 60 59 56 67 -30 66 -40 -1 -80 -3 -88 -4z"/>
<path d="M6410 1456 c0 -26 204 -196 236 -196 17 0 60 83 73 139 10 46 16 43
-114 61 -105 15 -195 13 -195 -4z"/>
<path d="M6163 1318 c-39 -46 -82 -101 -96 -123 l-27 -40 22 -17 c27 -21 121
-58 147 -58 23 0 38 69 47 218 9 130 1 131 -93 20z"/>
<path d="M6333 1385 c-7 -19 4 -153 19 -242 8 -51 14 -63 29 -63 26 0 124 38
149 58 l21 17 -42 60 c-51 73 -148 185 -161 185 -5 0 -11 -7 -15 -15z"/>
</g>
</svg>
