<?xml version="1.0" standalone="no"?>
<!DOCTYPE svg PUBLIC "-//W3C//DTD SVG 20010904//EN"
 "http://www.w3.org/TR/2001/REC-SVG-20010904/DTD/svg10.dtd">
<svg version="1.0" xmlns="http://www.w3.org/2000/svg"
 width="825.000000pt" height="464.000000pt" viewBox="0 0 825.000000 464.000000"
 preserveAspectRatio="xMidYMid meet">

<g transform="translate(0.000000,464.000000) scale(0.100000,-0.100000)"
fill="#000000" stroke="none">
<path d="M942 4035 c-30 -7 -60 -19 -67 -26 -12 -12 -37 -133 -102 -479 -16
-83 -21 -95 -39 -98 -33 -5 -49 -87 -19 -98 8 -4 15 -12 15 -19 0 -11 -30 -13
-160 -8 l-159 6 -36 -28 c-20 -15 -50 -45 -66 -68 -87 -120 -144 -512 -120
-825 22 -286 54 -399 135 -490 17 -17 36 -32 43 -32 10 0 13 -31 13 -138 0
-136 1 -140 31 -195 29 -54 29 -57 10 -57 -11 0 -24 -8 -29 -17 -17 -33 -3
-43 62 -43 52 0 70 5 102 26 l38 26 197 -16 c177 -14 203 -18 253 -43 42 -20
55 -31 51 -44 -12 -38 -25 -138 -25 -197 0 -105 26 -208 82 -322 44 -90 63
-117 137 -191 71 -71 102 -94 181 -132 131 -65 200 -81 340 -81 136 0 209 17
325 73 231 114 375 322 410 592 l6 47 147 -5 c91 -3 155 -10 167 -18 11 -6 52
-15 92 -19 l71 -7 140 70 139 70 199 -9 c166 -6 215 -12 298 -34 55 -15 104
-30 110 -34 9 -6 284 -14 750 -23 48 -1 71 2 77 12 6 10 38 15 116 17 105 4
109 3 132 -22 44 -47 141 -28 141 27 0 12 9 17 33 17 25 0 38 -8 61 -36 l29
-37 81 7 c57 5 89 12 108 26 23 17 43 20 131 20 117 0 117 0 117 -79 0 -55 29
-160 65 -236 143 -300 466 -468 794 -411 161 28 277 90 396 210 136 137 202
283 212 468 l6 96 101 7 c150 10 283 40 331 73 24 16 54 53 75 89 l35 61 80 7
c64 5 93 14 145 41 107 57 110 61 116 156 4 57 2 96 -8 123 -12 36 -21 44 -95
80 -76 37 -82 42 -82 72 -1 40 -32 63 -83 63 -48 0 -51 -23 -6 -36 23 -7 33
-16 33 -29 0 -16 -8 -21 -43 -23 -34 -3 -49 2 -74 23 -40 33 -102 65 -128 65
-15 0 -20 7 -20 25 0 24 2 25 69 25 97 0 103 10 62 103 -56 127 -111 208 -168
247 -54 36 -83 84 -83 137 0 34 -52 114 -101 157 -30 25 -58 37 -117 50 -132
28 -494 81 -964 142 -32 4 -48 11 -48 20 0 23 -29 28 -49 9 -18 -16 -20 -15
-26 4 -10 31 -45 38 -66 12 -21 -26 -65 -20 -74 10 -8 23 -42 25 -66 3 -16
-15 -35 -15 -191 -4 -95 6 -177 15 -183 18 -14 10 -127 17 -317 20 -101 2
-108 3 -108 22 0 11 -6 20 -13 20 -18 0 -47 53 -47 87 0 35 -16 53 -46 53 -18
0 -38 31 -119 183 -53 100 -141 260 -194 356 l-96 175 -75 34 c-93 43 -129 47
-595 61 -1170 37 -2783 81 -2871 80 -33 0 -83 -7 -112 -14z m1293 -211 c363
-8 667 -17 676 -20 44 -13 51 -100 40 -468 -10 -318 -11 -319 -63 -347 -15 -8
-383 0 -1303 31 -496 16 -500 17 -542 53 l-36 31 7 111 c7 124 41 442 56 525
19 102 43 111 305 104 110 -2 497 -11 860 -20z m1755 -79 c402 -24 418 -26
453 -49 23 -16 56 -71 134 -221 56 -110 103 -203 103 -207 0 -5 -27 -8 -59 -8
-44 0 -60 -4 -65 -16 -3 -9 -6 -76 -6 -150 l0 -134 -67 0 c-38 0 -300 5 -583
11 -414 9 -519 14 -537 25 l-23 14 0 356 0 355 26 26 26 26 177 -7 c97 -4 286
-14 421 -21z m-3292 -1217 l-3 -133 -40 0 -40 0 -3 119 c-1 66 0 126 2 133 3
8 22 13 46 13 l41 0 -3 -132z m6858 -292 c21 -33 15 -65 -17 -89 -24 -17 -30
-18 -55 -6 -65 32 -49 119 21 119 26 0 39 -6 51 -24z m-5665 -606 c239 -45
407 -279 371 -513 -39 -251 -277 -429 -519 -389 -267 44 -443 304 -378 557 24
90 52 141 116 209 108 116 256 165 410 136z m4621 -1 c125 -26 252 -119 312
-228 71 -131 73 -300 5 -433 -46 -90 -157 -184 -255 -218 -237 -82 -496 39
-580 270 -121 337 172 681 518 609z"/>
<path d="M1690 1564 c-56 -17 -125 -56 -125 -70 0 -11 194 -184 206 -184 4 0
10 51 13 113 4 61 10 122 13 135 5 20 1 22 -28 21 -19 0 -54 -7 -79 -15z"/>
<path d="M1863 1554 c3 -16 9 -77 12 -136 4 -60 9 -108 12 -108 3 0 44 33 91
73 47 39 90 75 96 79 26 18 -102 97 -183 113 -32 7 -33 6 -28 -21z"/>
<path d="M1470 1393 c-31 -48 -60 -129 -60 -166 0 -19 5 -19 133 -12 72 4 135
10 139 13 7 7 -154 204 -171 210 -6 2 -24 -18 -41 -45z"/>
<path d="M2043 1322 c-73 -86 -80 -97 -60 -100 12 -1 68 -6 125 -10 l104 -8
-7 46 c-7 46 -60 170 -73 170 -4 0 -44 -44 -89 -98z"/>
<path d="M1776 1208 c-32 -45 -6 -98 48 -98 39 0 66 26 66 62 0 55 -83 81
-114 36z"/>
<path d="M1414 1104 c9 -48 59 -155 84 -178 19 -16 23 -13 106 83 47 55 86
102 86 104 0 2 -37 7 -82 11 -46 4 -109 9 -142 13 l-59 6 7 -39z"/>
<path d="M2027 1121 l-68 -6 76 -90 c42 -49 80 -91 85 -93 13 -5 56 75 74 137
9 30 16 56 16 58 0 4 -99 1 -183 -6z"/>
<path d="M1876 962 c-4 -42 -9 -101 -12 -129 l-6 -53 33 6 c42 8 152 59 168
77 9 11 -8 31 -83 95 l-94 81 -6 -77z"/>
<path d="M1667 950 c-54 -45 -97 -86 -97 -90 0 -15 123 -69 173 -76 l48 -6 -7
113 c-3 63 -10 120 -14 127 -5 10 -34 -9 -103 -68z"/>
<path d="M6325 1571 c-37 -9 -114 -44 -139 -63 -17 -14 -12 -20 88 -107 59
-51 109 -92 110 -90 4 4 26 230 26 258 0 12 -39 13 -85 2z"/>
<path d="M6485 1458 c4 -68 10 -129 14 -135 4 -9 38 14 104 69 l98 82 -23 19
c-29 23 -133 73 -172 81 l-28 7 7 -123z"/>
<path d="M6086 1398 c-30 -45 -66 -145 -66 -183 0 -7 44 -7 140 -1 77 5 140
12 140 16 0 4 -40 56 -90 114 l-89 107 -35 -53z"/>
<path d="M6664 1331 c-43 -51 -80 -96 -82 -100 -1 -4 52 -12 119 -17 l121 -9
-5 45 c-6 46 -34 121 -59 154 -13 17 -20 12 -94 -73z"/>
<path d="M6397 1212 c-38 -42 -8 -102 49 -102 39 0 54 16 54 60 0 20 -5 41
-12 48 -18 18 -73 14 -91 -6z"/>
<path d="M6026 1109 c8 -43 55 -146 81 -178 l20 -25 30 35 c119 136 143 165
143 170 0 4 -37 9 -82 13 -46 4 -109 9 -141 13 l-57 6 6 -34z"/>
<path d="M6642 1123 c-35 -2 -62 -8 -60 -13 2 -5 36 -48 76 -95 55 -65 77 -84
86 -76 19 16 63 111 71 154 l7 37 -58 -2 c-33 -1 -87 -3 -122 -5z"/>
<path d="M6277 948 l-98 -83 28 -23 c31 -25 151 -65 180 -60 17 3 17 11 9 126
-4 67 -11 122 -15 122 -4 0 -51 -37 -104 -82z"/>
<path d="M6489 988 c0 -24 -4 -80 -7 -126 l-7 -83 30 7 c41 8 125 47 154 71
l24 19 -88 77 c-48 42 -92 77 -96 77 -5 0 -9 -19 -10 -42z"/>
</g>
</svg>
