<?xml version="1.0" standalone="no"?>
<!DOCTYPE svg PUBLIC "-//W3C//DTD SVG 20010904//EN"
 "http://www.w3.org/TR/2001/REC-SVG-20010904/DTD/svg10.dtd">
<svg version="1.0" xmlns="http://www.w3.org/2000/svg"
 width="914.000000pt" height="514.000000pt" viewBox="0 0 914.000000 514.000000"
 preserveAspectRatio="xMidYMid meet">

<g transform="translate(0.000000,514.000000) scale(0.100000,-0.100000)"
fill="#000000" stroke="none">
<path d="M3435 3900 c-355 -13 -818 -55 -1110 -101 -141 -23 -224 -50 -324
-106 -58 -33 -63 -37 -46 -49 10 -7 23 -15 29 -17 17 -7 -22 -42 -259 -227
-292 -230 -277 -221 -347 -213 -35 3 -55 10 -51 16 3 6 1 7 -5 3 -6 -4 -220
-49 -474 -101 -255 -52 -485 -102 -512 -111 -43 -15 -51 -22 -71 -68 -13 -28
-26 -66 -30 -84 -7 -31 -5 -33 14 -27 28 9 66 -16 87 -57 14 -27 16 -51 11
-149 -4 -64 -10 -124 -13 -134 -6 -14 -18 -16 -75 -13 l-68 3 -8 -50 c-7 -45
-12 -52 -52 -74 l-44 -24 6 -131 c6 -151 10 -181 33 -248 12 -36 23 -52 42
-59 15 -6 256 -40 537 -76 388 -49 543 -65 650 -66 l139 -2 36 -65 c43 -80
164 -205 240 -247 282 -159 647 -73 822 193 l42 64 62 0 c53 0 64 -3 69 -19 6
-18 18 -19 303 -15 163 2 1098 9 2077 14 979 6 1832 13 1896 16 l116 6 33 -53
c141 -230 454 -344 710 -259 144 48 290 168 355 292 l30 57 86 -6 c132 -9 343
13 404 42 79 38 128 83 122 113 -3 14 5 41 19 66 22 37 24 53 24 173 0 142 -2
148 -59 178 -27 14 -28 16 -34 136 -4 67 -7 186 -8 263 -1 178 -10 249 -35
283 -25 34 -120 68 -232 82 -122 17 -1535 138 -1942 167 -41 2 -88 7 -105 9
-39 6 -170 -28 -191 -50 -14 -14 -31 -16 -83 -13 -66 4 -68 5 -416 212 -192
115 -386 230 -430 256 -44 26 -104 60 -133 74 -59 30 -70 46 -54 81 10 22 8
24 -46 38 -74 21 -254 54 -362 67 -109 14 -1074 21 -1375 10z m630 -132 c6
-20 45 -641 40 -646 -9 -9 -1115 -15 -1115 -6 0 5 50 141 112 301 71 186 117
295 127 297 28 9 422 46 566 55 220 13 265 13 270 -1z m673 -8 c188 -12 303
-38 449 -100 146 -63 217 -100 338 -180 170 -112 166 -106 69 -102 l-83 4 -10
-39 c-6 -21 -11 -77 -11 -124 l0 -86 -352 -6 c-194 -4 -435 -7 -535 -7 -164 0
-182 2 -187 18 -6 20 -136 620 -136 627 0 9 292 5 458 -5z m-1669 -97 c-6 -16
-60 -145 -122 -288 l-112 -260 -145 -6 c-80 -3 -147 -5 -148 -3 -5 3 325 523
344 544 15 15 104 37 161 39 31 1 32 0 22 -26z m2836 -465 c30 -28 55 -54 55
-59 0 -5 -47 -9 -104 -9 l-104 0 -6 68 c-3 37 -12 86 -19 108 l-14 42 69 -50
c38 -28 93 -73 123 -100z m2849 -435 c8 -28 26 -135 26 -155 0 -14 -8 -18 -34
-18 l-33 0 -17 89 c-9 49 -16 92 -16 95 0 3 15 6 34 6 24 0 36 -5 40 -17z
m-250 -129 c9 -8 16 -20 16 -25 0 -5 -43 -9 -95 -9 -83 0 -96 2 -105 19 -5 11
-10 22 -10 25 0 3 40 6 89 6 68 0 93 -4 105 -16z m-7813 -146 c-8 -21 -15 -23
-105 -26 -75 -2 -96 0 -96 11 0 29 25 37 117 37 92 0 92 0 84 -22z m1492 -83
c185 -48 316 -190 347 -374 48 -286 -207 -559 -492 -527 -124 14 -218 63 -303
158 -76 85 -115 185 -115 298 0 122 43 223 133 318 116 120 275 167 430 127z
m5690 -15 c253 -96 368 -394 246 -639 -37 -73 -135 -168 -212 -205 -173 -81
-380 -45 -516 91 -251 251 -136 670 210 768 73 20 196 14 272 -15z"/>
<path d="M2043 2333 c4 -27 10 -85 13 -131 6 -73 16 -103 29 -90 3 2 9 49 15
104 5 54 12 114 14 132 5 32 4 32 -36 32 l-41 0 6 -47z"/>
<path d="M1921 2347 c-30 -12 -56 -27 -58 -33 -2 -5 33 -56 77 -113 47 -60 80
-95 80 -85 0 11 -7 66 -15 124 -8 58 -15 111 -15 118 0 16 -6 15 -69 -11z"/>
<path d="M2169 2368 c-4 -15 -35 -268 -33 -268 6 0 166 211 163 214 -17 16
-128 62 -130 54z"/>
<path d="M1780 2255 c-28 -29 -36 -18 92 -123 82 -68 108 -83 108 -63 0 9
-158 204 -169 209 -4 1 -18 -9 -31 -23z"/>
<path d="M2257 2175 c-48 -57 -82 -107 -76 -110 11 -8 5 -12 126 87 l92 76
-24 26 c-13 14 -26 26 -28 26 -2 0 -43 -47 -90 -105z"/>
<path d="M1701 2138 c-36 -83 -36 -85 6 -92 99 -15 215 -28 219 -24 5 6 -187
158 -199 158 -4 0 -16 -19 -26 -42z"/>
<path d="M2322 2103 c-55 -43 -99 -80 -97 -81 3 -4 166 14 223 24 19 4 32 12
32 21 0 20 -41 113 -50 113 -4 0 -53 -35 -108 -77z"/>
<path d="M2040 2000 c-24 -24 -26 -53 -4 -74 18 -19 65 -21 82 -4 20 20 14 65
-10 82 -30 21 -44 20 -68 -4z"/>
<path d="M1660 1961 l0 -41 38 5 c20 3 79 9 131 15 51 5 96 12 100 15 12 13
-26 23 -113 29 -50 4 -106 10 -123 13 -33 5 -33 5 -33 -36z"/>
<path d="M2342 1985 c-161 -17 -167 -30 -21 -45 52 -6 110 -12 131 -14 29 -3
37 0 41 15 8 29 -4 59 -22 58 -9 -1 -67 -7 -129 -14z"/>
<path d="M1772 1885 c-51 -7 -95 -15 -98 -18 -6 -6 35 -115 47 -122 7 -5 209
141 209 151 0 7 -62 2 -158 -11z"/>
<path d="M2321 1820 c56 -44 106 -80 110 -80 8 0 49 94 49 114 0 16 -12 19
-135 36 -139 19 -139 19 -24 -70z"/>
<path d="M1860 1780 c-52 -43 -96 -83 -97 -87 -2 -5 8 -20 22 -33 l25 -23 19
24 c10 13 48 60 85 104 36 43 66 83 66 87 0 20 -32 1 -120 -72z"/>
<path d="M2180 1850 c0 -6 37 -55 82 -110 l82 -100 28 27 c15 15 27 27 25 29
-192 159 -217 177 -217 154z"/>
<path d="M1943 1725 c-40 -51 -75 -99 -78 -107 -6 -15 36 -41 95 -58 l27 -8
17 130 c10 71 16 131 14 133 -2 2 -36 -39 -75 -90z"/>
<path d="M2066 1798 c-3 -13 -7 -52 -11 -88 -3 -36 -8 -89 -11 -117 l-6 -53
34 0 c19 0 37 2 39 5 3 2 -1 57 -7 122 -7 65 -13 126 -13 136 -1 25 -20 21
-25 -5z"/>
<path d="M2150 1692 c9 -72 18 -134 21 -136 4 -5 116 38 126 48 5 5 -68 106
-135 185 l-29 35 17 -132z"/>
<path d="M7684 2288 c11 -138 17 -178 31 -178 8 0 14 30 19 93 4 50 10 111 13
135 l6 42 -38 0 -38 0 7 -92z"/>
<path d="M7590 2360 c-22 -6 -89 -37 -99 -46 -2 -2 159 -214 163 -214 5 0 -26
237 -32 251 -5 12 -14 14 -32 9z"/>
<path d="M7791 2273 c-7 -54 -15 -116 -18 -138 -3 -22 -4 -38 -1 -35 23 23
158 204 158 212 0 9 -60 38 -106 52 -20 6 -22 1 -33 -91z"/>
<path d="M7418 2253 l-26 -28 104 -83 c57 -46 108 -81 113 -77 6 3 -27 52 -76
110 -47 58 -86 105 -87 105 -1 0 -14 -12 -28 -27z"/>
<path d="M7895 2180 c-44 -54 -81 -104 -83 -110 -8 -24 25 -5 106 62 128 105
120 94 92 123 -13 14 -26 25 -29 25 -3 -1 -42 -45 -86 -100z"/>
<path d="M7331 2131 c-28 -67 -27 -78 12 -85 57 -10 219 -28 222 -24 5 5 -193
158 -204 158 -5 0 -18 -22 -30 -49z"/>
<path d="M7956 2103 c-54 -43 -94 -79 -88 -81 11 -3 243 26 249 32 7 7 -41
119 -52 123 -5 1 -54 -32 -109 -74z"/>
<path d="M7682 2004 c-24 -17 -30 -62 -10 -82 20 -20 76 -15 88 7 15 29 12 49
-10 71 -24 24 -38 25 -68 4z"/>
<path d="M7300 1961 l0 -39 38 4 c20 2 79 8 131 14 137 14 140 27 9 41 -46 4
-104 11 -130 14 l-48 6 0 -40z"/>
<path d="M7983 1986 c-104 -10 -134 -18 -121 -31 3 -3 48 -10 99 -15 52 -6
111 -12 132 -15 l37 -5 0 40 c0 32 -4 40 -17 39 -10 -1 -68 -7 -130 -13z"/>
<path d="M7405 1885 c-49 -7 -91 -14 -92 -14 -14 -5 32 -131 47 -131 4 0 54
36 110 80 l102 80 -38 -1 c-22 -1 -79 -7 -129 -14z"/>
<path d="M7870 1887 c155 -122 191 -147 199 -143 12 8 54 117 47 123 -5 6
-201 32 -236 32 -21 0 -23 -1 -10 -12z"/>
<path d="M7495 1779 c-55 -45 -101 -82 -102 -83 -2 -1 10 -14 25 -29 l28 -27
82 99 c76 92 94 121 74 121 -4 0 -52 -36 -107 -81z"/>
<path d="M7810 1853 c0 -3 37 -52 82 -107 45 -56 83 -103 85 -105 4 -6 53 40
53 49 0 10 -197 170 -209 170 -6 0 -11 -3 -11 -7z"/>
<path d="M7570 1714 c-45 -58 -80 -107 -77 -110 10 -10 122 -53 126 -48 5 5
39 264 35 264 -2 0 -39 -48 -84 -106z"/>
<path d="M7697 1773 c-4 -26 -9 -90 -13 -140 l-7 -93 37 0 c42 0 40 -11 23
159 -13 123 -30 154 -40 74z"/>
<path d="M7773 1785 c3 -22 11 -83 17 -136 l12 -97 28 8 c44 13 100 41 100 51
0 8 -125 175 -153 204 -6 6 -8 -4 -4 -30z"/>
</g>
</svg>
