<?xml version="1.0" standalone="no"?>
<!DOCTYPE svg PUBLIC "-//W3C//DTD SVG 20010904//EN"
 "http://www.w3.org/TR/2001/REC-SVG-20010904/DTD/svg10.dtd">
<svg version="1.0" xmlns="http://www.w3.org/2000/svg"
 width="728.000000pt" height="410.000000pt" viewBox="0 0 728.000000 410.000000"
 preserveAspectRatio="xMidYMid meet">

<g transform="translate(0.000000,410.000000) scale(0.100000,-0.100000)"
fill="#000000" stroke="none">
<path d="M2610 3173 c-181 -6 -379 -24 -480 -43 -58 -11 -106 -20 -107 -20 -2
0 -2 -5 -1 -12 3 -13 -140 -76 -482 -212 -435 -174 -650 -243 -719 -233 -23 4
-107 -9 -236 -36 -193 -41 -200 -43 -209 -69 -9 -25 -6 -31 30 -62 21 -19 74
-55 117 -81 42 -25 77 -52 77 -59 0 -12 -64 -124 -78 -137 -6 -6 -84 1 -168
16 l-31 5 -5 -92 c-6 -106 -23 -154 -74 -210 l-36 -40 3 -139 c2 -76 0 -142
-4 -145 -30 -31 28 -129 108 -182 54 -36 121 -52 479 -117 203 -37 255 -43
285 -35 54 15 58 13 65 -28 10 -65 74 -180 131 -236 97 -95 220 -146 356 -146
172 0 323 84 421 235 30 46 46 61 66 63 53 5 2466 2 2862 -4 314 -5 411 -10
432 -20 15 -8 42 -14 60 -14 29 -1 38 -8 71 -56 48 -69 133 -136 217 -171 59
-25 77 -27 185 -27 102 0 129 3 178 23 77 30 172 103 222 170 l40 53 63 -5
c57 -6 65 -4 69 13 6 21 13 23 211 45 169 19 265 41 333 74 61 30 79 52 63 79
-8 13 -7 38 3 97 8 44 15 142 16 217 l1 137 -28 30 c-24 26 -38 30 -101 36
-54 5 -87 3 -126 -9 -52 -15 -54 -15 -79 7 -75 65 -230 224 -230 236 0 12 22
13 138 8 117 -5 187 -16 275 -43 16 -5 17 -3 5 16 -30 49 -320 201 -493 259
-108 36 -358 78 -715 122 l-265 33 -430 217 c-770 389 -812 406 -1103 449
-264 38 -490 50 -905 48 -216 -1 -430 -3 -477 -5z m644 -91 c8 -14 69 -652 63
-659 -6 -5 -1131 43 -1489 64 l-98 6 -17 54 c-12 38 -14 61 -7 80 5 16 56 63
129 120 91 72 153 111 260 163 273 135 373 156 798 169 347 12 355 12 361 3z
m576 -28 c170 -21 294 -48 416 -89 182 -61 469 -208 677 -347 87 -58 87 -59
71 -83 -18 -28 -44 -119 -44 -157 l0 -28 -82 0 c-46 0 -333 11 -638 25 -305
14 -571 25 -591 25 l-36 0 -22 103 c-11 56 -43 210 -70 341 l-49 239 121 -7
c67 -3 178 -13 247 -22z m-2037 -1348 c245 -118 298 -440 102 -625 -30 -29
-81 -64 -112 -79 -50 -23 -71 -27 -153 -27 -85 0 -102 3 -160 31 -197 93 -281
318 -191 510 72 153 193 227 366 221 74 -3 100 -8 148 -31z m4312 1 c79 -37
156 -114 192 -191 25 -54 28 -72 28 -161 0 -87 -3 -107 -26 -156 -85 -180
-283 -268 -470 -209 -263 83 -356 417 -174 619 49 54 85 79 154 108 81 34 211
30 296 -10z m975 -227 c0 -13 -57 -155 -72 -180 -7 -11 -29 -24 -48 -29 -57
-15 -160 -22 -160 -11 0 10 137 176 166 201 10 9 26 19 34 22 26 9 80 8 80 -3z"/>
<path d="M1540 1649 c-11 -39 -6 -88 10 -119 6 -11 10 -7 16 15 9 37 41 104
62 128 14 16 12 17 -31 17 -46 0 -46 -1 -57 -41z"/>
<path d="M1757 1619 c-15 -12 -37 -39 -48 -61 l-21 -41 36 22 c19 12 63 28 97
35 l61 12 -32 27 c-38 32 -56 33 -93 6z"/>
<path d="M1367 1570 c-27 -32 -27 -45 3 -87 18 -24 90 -69 90 -56 0 5 -7 18
-15 30 -8 11 -21 47 -30 79 -8 31 -16 59 -19 61 -2 2 -15 -10 -29 -27z"/>
<path d="M1810 1438 c-23 -10 -23 -11 -5 -15 41 -9 101 -36 134 -60 l34 -26
-8 49 c-4 27 -9 51 -11 53 -10 11 -121 10 -144 -1z"/>
<path d="M1580 1410 c-30 -30 -27 -83 7 -110 47 -36 113 -4 113 55 0 63 -77
98 -120 55z"/>
<path d="M1290 1337 c0 -18 6 -41 13 -50 17 -24 74 -31 127 -17 l45 13 -52 17
c-29 9 -71 29 -93 44 l-40 26 0 -33z"/>
<path d="M1800 1285 c0 -2 10 -23 21 -45 12 -23 24 -61 27 -86 2 -24 8 -44 13
-44 11 0 49 55 49 72 -1 24 -25 57 -60 83 -32 24 -50 31 -50 20z"/>
<path d="M1530 1173 c-14 -10 -54 -25 -89 -34 l-64 -16 38 -28 c35 -27 38 -28
63 -13 34 21 85 83 81 97 -3 7 -13 5 -29 -6z"/>
<path d="M1690 1171 c0 -30 -30 -94 -58 -123 l-26 -28 47 0 c36 0 49 4 57 19
11 22 13 93 4 129 -8 27 -24 29 -24 3z"/>
<path d="M5860 1664 c-14 -35 -12 -83 5 -119 11 -24 14 -26 14 -10 2 29 39
106 63 133 l21 22 -47 0 c-41 0 -48 -3 -56 -26z"/>
<path d="M6070 1614 c-25 -22 -60 -72 -60 -87 0 -2 22 7 49 20 27 13 70 27 97
31 l49 7 -36 28 c-45 34 -59 34 -99 1z"/>
<path d="M5686 1576 c-25 -34 -27 -40 -15 -67 12 -30 57 -70 92 -82 16 -6 15
-3 -3 33 -11 22 -26 65 -33 96 l-13 56 -28 -36z"/>
<path d="M6130 1438 c-24 -10 -23 -11 25 -25 28 -8 67 -28 88 -44 l37 -30 0
45 c0 35 -5 48 -19 56 -25 13 -98 12 -131 -2z"/>
<path d="M5895 1405 c-39 -38 -28 -93 22 -114 51 -21 103 13 103 69 0 29 -44
70 -75 70 -14 0 -37 -11 -50 -25z"/>
<path d="M5610 1326 c0 -40 3 -45 31 -55 41 -14 62 -14 111 1 l39 11 -56 18
c-30 9 -71 29 -90 43 l-35 27 0 -45z"/>
<path d="M6137 1242 c13 -26 27 -67 31 -91 l7 -44 28 32 c15 18 27 39 27 46 0
28 -83 105 -113 105 -2 0 7 -21 20 -48z"/>
<path d="M6007 1164 c-4 -23 -22 -65 -41 -93 l-35 -51 37 0 c20 0 43 4 51 9
20 13 26 100 9 141 l-15 35 -6 -41z"/>
<path d="M5841 1169 c-19 -10 -58 -24 -88 -30 -52 -12 -53 -13 -36 -32 31 -34
50 -39 83 -22 28 14 88 90 79 99 -2 2 -19 -5 -38 -15z"/>
</g>
</svg>
